<svg width="100%" viewBox="0 0 680 280" xmlns="http://www.w3.org/2000/svg">
  <defs>
    <clipPath id="bannerClip">
      <rect width="680" height="280" rx="16"/>
    </clipPath>
  </defs>
  <g clip-path="url(#bannerClip)">
    <rect width="680" height="280" fill="#0d1117"/>
    <g stroke="#161b22" stroke-width="1" opacity="0.8">
      <line x1="0" y1="40" x2="680" y2="40"/><line x1="0" y1="80" x2="680" y2="80"/>
      <line x1="0" y1="120" x2="680" y2="120"/><line x1="0" y1="160" x2="680" y2="160"/>
      <line x1="0" y1="200" x2="680" y2="200"/><line x1="0" y1="240" x2="680" y2="240"/>
      <line x1="40" y1="0" x2="40" y2="280"/><line x1="80" y1="0" x2="80" y2="280"/>
      <line x1="120" y1="0" x2="120" y2="280"/><line x1="160" y1="0" x2="160" y2="280"/>
      <line x1="200" y1="0" x2="200" y2="280"/><line x1="240" y1="0" x2="240" y2="280"/>
      <line x1="280" y1="0" x2="280" y2="280"/><line x1="320" y1="0" x2="320" y2="280"/>
      <line x1="360" y1="0" x2="360" y2="280"/><line x1="400" y1="0" x2="400" y2="280"/>
      <line x1="440" y1="0" x2="440" y2="280"/><line x1="480" y1="0" x2="480" y2="280"/>
      <line x1="520" y1="0" x2="520" y2="280"/><line x1="560" y1="0" x2="560" y2="280"/>
      <line x1="600" y1="0" x2="600" y2="280"/><line x1="640" y1="0" x2="640" y2="280"/>
    </g>
    <rect x="0" y="0" width="4" height="280" fill="#00D1FF"/>
    <rect x="0" y="0" width="40" height="280" fill="#00D1FF" opacity="0.03"/>
    <g font-family="Courier New, monospace" font-size="12" opacity="0.15">
      <text x="440" y="50" fill="#00D1FF">const</text>
      <text x="490" y="50" fill="#ffffff">developer = {</text>
      <text x="455" y="70" fill="#a8dadc">name:</text>
      <text x="495" y="70" fill="#e9c46a">"Ammar Kalim"</text>
      <text x="455" y="90" fill="#a8dadc">stack:</text>
      <text x="498" y="90" fill="#e9c46a">["Blazor",</text>
      <text x="455" y="108" fill="#e9c46a">".NET", "C#"]</text>
      <text x="455" y="126" fill="#a8dadc">focus:</text>
      <text x="500" y="126" fill="#e9c46a">"Security"</text>
      <text x="440" y="144" fill="#ffffff">}</text>
    </g>
    <circle cx="580" cy="30" r="3" fill="#00D1FF" opacity="0.4"/>
    <circle cx="596" cy="30" r="3" fill="#00D1FF" opacity="0.25"/>
    <circle cx="612" cy="30" r="3" fill="#00D1FF" opacity="0.15"/>
    <circle cx="628" cy="30" r="3" fill="#00D1FF" opacity="0.08"/>
    <circle cx="76" cy="108" r="44" fill="#161b22" stroke="#00D1FF" stroke-width="1.5"/>
    <text x="76" y="115" text-anchor="middle" font-family="Arial, sans-serif" font-size="22" font-weight="700" fill="#00D1FF">MAK</text>
    <circle cx="112" cy="144" r="7" fill="#0d1117"/>
    <circle cx="112" cy="144" r="5" fill="#3fb950"/>
    <text x="140" y="88" font-family="Arial, sans-serif" font-size="24" font-weight="700" fill="#ffffff">Muhammad Ammar Kalim</text>
    <text x="140" y="114" font-family="Arial, sans-serif" font-size="13" fill="#00D1FF">Full Stack Developer · Security Enthusiast · .NET &amp; Blazor</text>
    <line x1="140" y1="126" x2="620" y2="126" stroke="#21262d" stroke-width="1"/>
    <g font-family="Arial, sans-serif" font-size="12" fill="#8b949e">
      <text x="140" y="148">📍  Islamabad, Pakistan</text>
      <text x="310" y="148">🎓  Air University · CGPA 3.33</text>
      <text x="510" y="148">📅  Class of 2028</text>
    </g>
    <g font-family="Arial, sans-serif" font-size="11">
      <rect x="140" y="164" width="58" height="22" rx="11" fill="#1c2333" stroke="#30363d" stroke-width="1"/>
      <text x="169" y="179" text-anchor="middle" fill="#79c0ff">Blazor</text>
      <rect x="206" y="164" width="46" height="22" rx="11" fill="#1c2333" stroke="#30363d" stroke-width="1"/>
      <text x="229" y="179" text-anchor="middle" fill="#79c0ff">.NET 9</text>
      <rect x="260" y="164" width="36" height="22" rx="11" fill="#1c2333" stroke="#30363d" stroke-width="1"/>
      <text x="278" y="179" text-anchor="middle" fill="#79c0ff">C#</text>
      <rect x="304" y="164" width="60" height="22" rx="11" fill="#1c2333" stroke="#30363d" stroke-width="1"/>
      <text x="334" y="179" text-anchor="middle" fill="#79c0ff">EF Core</text>
      <rect x="372" y="164" width="76" height="22" rx="11" fill="#1c2333" stroke="#30363d" stroke-width="1"/>
      <text x="410" y="179" text-anchor="middle" fill="#79c0ff">SQL Server</text>
      <rect x="456" y="164" width="38" height="22" rx="11" fill="#1c2333" stroke="#30363d" stroke-width="1"/>
      <text x="475" y="179" text-anchor="middle" fill="#79c0ff">C++</text>
      <rect x="502" y="164" width="64" height="22" rx="11" fill="#1a2433" stroke="#1f4068" stroke-width="1"/>
      <text x="534" y="179" text-anchor="middle" fill="#00D1FF">Security</text>
    </g>
    <rect x="0" y="220" width="680" height="60" fill="#010409" opacity="0.6"/>
    <g font-family="Arial, sans-serif">
      <text x="80" y="244" text-anchor="middle" font-size="18" font-weight="700" fill="#ffffff">4</text>
      <text x="80" y="260" text-anchor="middle" font-size="11" fill="#8b949e">Projects</text>
      <line x1="140" y1="228" x2="140" y2="272" stroke="#21262d" stroke-width="1"/>
      <text x="220" y="244" text-anchor="middle" font-size="18" font-weight="700" fill="#ffffff">.NET</text>
      <text x="220" y="260" text-anchor="middle" font-size="11" fill="#8b949e">Primary Stack</text>
      <line x1="300" y1="228" x2="300" y2="272" stroke="#21262d" stroke-width="1"/>
      <text x="380" y="244" text-anchor="middle" font-size="18" font-weight="700" fill="#3fb950">3.33</text>
      <text x="380" y="260" text-anchor="middle" font-size="11" fill="#8b949e">CGPA / 4.0</text>
      <line x1="460" y1="228" x2="460" y2="272" stroke="#21262d" stroke-width="1"/>
      <text x="560" y="244" text-anchor="middle" font-size="18" font-weight="700" fill="#00D1FF">RBAC</text>
      <text x="560" y="260" text-anchor="middle" font-size="11" fill="#8b949e">Security Focus</text>
    </g>
    <rect x="0" y="276" width="680" height="4" fill="#00D1FF" opacity="0.6"/>
  </g>
</svg>